<svg width="37" height="38" viewBox="0 0 37 38" fill="none" xmlns="http://www.w3.org/2000/svg">
<path fill-rule="evenodd" clip-rule="evenodd" d="M26.2907 22.9081L35.676 32.5265C36.2073 33.0706 36.5 33.7943 36.5 34.5644C36.5 35.3345 36.2073 36.0583 35.6758 36.6025C35.1447 37.1469 34.4385 37.4468 33.6875 37.4468C32.9365 37.4468 32.2303 37.1469 31.6989 36.6023L24.909 29.6438L24.9079 29.6426L22.3137 26.984C20.0107 28.5508 17.3438 29.3762 14.5625 29.3762C6.80844 29.3762 0.5 22.9111 0.5 14.9645C0.5 7.01784 6.80844 0.552734 14.5625 0.552734C22.3166 0.552734 28.625 7.01784 28.625 14.9645C28.625 17.8148 27.8196 20.5479 26.2907 22.9081ZM21.9829 25.4655L21.983 25.4654C23.0695 24.6572 24.0203 23.6827 24.809 22.5692C26.3855 20.3449 27.2188 17.7153 27.2188 14.9645C27.2188 7.8125 21.5412 1.99391 14.5625 1.99391C7.58384 1.99391 1.90625 7.8125 1.90625 14.9645C1.90625 22.1164 7.58384 27.935 14.5625 27.935C17.2467 27.935 19.8125 27.0811 21.9829 25.4655ZM25.4464 24.081C24.8511 24.8268 24.1859 25.5085 23.4582 26.1186L25.453 28.163C26.169 27.5414 26.8346 26.8592 27.4412 26.1254L25.4464 24.081ZM33.6875 36.0056C34.0628 36.0056 34.4159 35.8557 34.6816 35.5833C34.9474 35.311 35.0938 34.9494 35.0938 34.5644C35.0938 34.1795 34.9474 33.8178 34.6818 33.5459L28.4382 27.1472C27.8272 27.877 27.162 28.5586 26.45 29.1848L32.6934 35.5833C32.9591 35.8557 33.3122 36.0056 33.6875 36.0056ZM21.5938 14.9646C21.5938 14.5669 21.9088 14.2441 22.2969 14.2441C22.685 14.2441 23 14.5669 23 14.9646C23 15.3623 22.685 15.6851 22.2969 15.6851C21.9088 15.6851 21.5938 15.3623 21.5938 14.9646ZM14.5625 3.43506C8.35918 3.43506 3.3125 8.60703 3.3125 14.9644C3.3125 21.3217 8.35918 26.4937 14.5625 26.4937C20.7658 26.4937 25.8125 21.3217 25.8125 14.9644C25.8125 8.60703 20.7658 3.43506 14.5625 3.43506ZM14.5625 25.0525C9.13466 25.0525 4.71875 20.527 4.71875 14.9644C4.71875 9.40176 9.13466 4.87622 14.5625 4.87622C19.9903 4.87622 24.4062 9.40176 24.4062 14.9644C24.4062 20.527 19.9903 25.0525 14.5625 25.0525ZM19.3933 7.87809C20.7824 8.87526 21.8366 10.256 22.4421 11.8709C22.5814 12.2424 22.4004 12.6592 22.0379 12.802C21.955 12.8346 21.8697 12.8501 21.7859 12.8501C21.5033 12.8501 21.2368 12.6743 21.1294 12.3878C20.0912 9.61879 17.4523 7.75848 14.5625 7.75848C14.1742 7.75848 13.8594 7.43582 13.8594 7.03793C13.8594 6.64004 14.1742 6.31738 14.5625 6.31738C16.3007 6.31738 17.9712 6.85707 19.3933 7.87809Z" fill="#1ECE7A"/>
</svg>
