<svg width="37" height="38" viewBox="0 0 37 38" fill="none" xmlns="http://www.w3.org/2000/svg">
<path fill-rule="evenodd" clip-rule="evenodd" d="M18.5 0.553223C13.1471 0.553223 8.09101 3.10452 4.71875 7.22072V6.02966C4.71875 5.43223 4.24702 4.94879 3.66406 4.94879C3.0811 4.94879 2.60938 5.43223 2.60938 6.02966V10.6213C2.60938 11.6528 3.90945 11.8005 3.66406 11.7022C3.68432 11.7022 3.70452 11.7012 3.72477 11.7003L3.72481 11.7003L3.72896 11.7001L7.94771 11.432C8.52962 11.395 8.97153 10.882 8.93546 10.2867C8.89939 9.69131 8.39166 9.24275 7.81791 9.27438L5.68084 9.41057C8.64099 5.28393 13.4305 2.71498 18.5 2.71498C27.2238 2.71498 34.3906 10.0597 34.3906 19.0002C34.3906 19.5976 34.8624 20.0811 35.4453 20.0811C36.0283 20.0811 36.5 19.5976 36.5 19.0002C36.5 8.86804 28.3866 0.553223 18.5 0.553223ZM25.8551 18.7523C25.7707 18.3871 25.5091 18.0936 25.162 17.9755L19.9874 16.2075L23.6624 8.6753C23.8931 8.20138 23.7551 7.62507 23.3359 7.31472C22.9146 7.00545 22.3378 7.05193 21.9732 7.42763L11.4263 18.2362C11.1678 18.5011 11.0617 18.8842 11.1452 19.2484C11.2296 19.6136 11.4912 19.9071 11.8383 20.0253L17.0129 21.7933L13.3379 29.3254C13.1072 29.7994 13.2452 30.3757 13.6645 30.686C14.0843 30.9943 14.6599 30.9492 15.0271 30.5731L25.574 19.7646C25.8325 19.4996 25.9386 19.1165 25.8551 18.7523ZM29.0523 26.568L33.271 26.2999C33.8351 26.2673 34.3906 26.7849 34.3906 27.3787V31.9703C34.3906 32.5678 33.9189 33.0512 33.3359 33.0512C32.753 33.0512 32.2812 32.5678 32.2812 31.9703V30.7793C28.909 34.8955 23.8529 37.4468 18.5 37.4468C8.61336 37.4468 0.5 29.132 0.5 18.9998C0.5 18.4024 0.971727 17.9189 1.55469 17.9189C2.13765 17.9189 2.60938 18.4024 2.60938 18.9998C2.60938 27.9403 9.77619 35.285 18.5 35.285C23.5695 35.285 28.359 32.7161 31.3192 28.5894L29.1821 28.7256C28.6197 28.7626 28.1006 28.3087 28.0645 27.7133C28.0285 27.118 28.4704 26.605 29.0523 26.568Z" fill="#D62642"/>
</svg>
