<svg width="37" height="38" viewBox="0 0 37 38" fill="none" xmlns="http://www.w3.org/2000/svg">
<path d="M2.85414 17.0501C3.79247 11.5955 7.54976 7.12982 12.5229 5.28978L12.2894 5.70442C11.9638 6.28202 12.1568 7.02065 12.7204 7.35429C12.9061 7.46411 13.1086 7.51644 13.3086 7.51644C13.7157 7.51644 14.1118 7.29986 14.3301 6.9126L15.9547 4.03008C16.1111 3.75264 16.1537 3.42302 16.0727 3.11369C15.9918 2.8042 15.7945 2.54044 15.5238 2.38022L12.7103 0.715053C12.1462 0.381409 11.4258 0.57947 11.1004 1.15691C10.775 1.7345 10.968 2.47313 11.5316 2.80661L11.8251 2.98036C6.01859 5.08721 1.62559 10.2804 0.533271 16.6306C0.00470909 19.6998 0.273861 22.8628 1.3115 25.778C1.48591 26.268 1.93748 26.572 2.41875 26.572C2.55277 26.572 2.68931 26.5484 2.8224 26.4986C3.43392 26.2699 3.74879 25.5767 3.52568 24.9502C2.62976 22.4335 2.39754 19.7019 2.85414 17.0501Z" fill="#1ECE7A"/>
<path d="M30.6958 29.413C30.1974 28.9836 29.4542 29.0497 29.0355 29.5603C25.6074 33.74 20.2234 35.7487 14.9829 34.8007C12.4392 34.341 10.0657 33.2103 8.09049 31.5491H8.46963C9.12059 31.5491 9.64805 31.0083 9.64805 30.3413C9.64805 29.6743 9.12059 29.1336 8.46963 29.1336H5.33235C5.02957 29.1043 4.71595 29.1941 4.46456 29.4102C4.21945 29.6209 4.07976 29.912 4.04991 30.2143C4.04975 30.2154 4.0496 30.2164 4.04944 30.2175C4.04944 30.2178 4.04944 30.2181 4.04944 30.2185C4.04614 30.2531 4.04457 30.2879 4.04425 30.3227C4.0441 30.3288 4.04331 30.3346 4.04331 30.3407L4.04205 33.6693C4.04174 34.3363 4.5692 34.8772 5.22001 34.8775H5.22048C5.87112 34.8775 6.39859 34.3371 6.3989 33.6703L6.39906 33.2496C8.7237 35.264 11.5448 36.632 14.5735 37.1794C15.5675 37.3591 16.5657 37.447 17.5579 37.447C22.6206 37.447 27.5219 35.1595 30.8396 31.1146C31.2585 30.6041 31.194 29.8421 30.6958 29.413Z" fill="#1ECE7A"/>
<path d="M36.5731 23.2585C36.2479 22.6809 35.5268 22.483 34.9634 22.8165L34.5758 23.0458C34.5918 22.9604 34.6107 22.8756 34.6253 22.7901C35.428 18.1235 34.4097 13.4164 31.7578 9.53524C29.1059 5.65412 25.1379 3.06386 20.5849 2.24188C19.9439 2.12627 19.3326 2.56487 19.22 3.22166C19.107 3.87844 19.535 4.50479 20.1759 4.62056C24.1089 5.33064 27.5367 7.56812 29.8274 10.9208C32.1135 14.2665 32.9939 18.3232 32.3085 22.3461L32.1358 22.0397C31.8104 21.4622 31.0897 21.264 30.5261 21.5974C29.9623 21.9307 29.7692 22.6693 30.0945 23.247L31.7185 26.1307C31.8748 26.4081 32.1322 26.6105 32.4342 26.6934C32.5346 26.7209 32.637 26.7346 32.7392 26.7346C32.9442 26.7346 33.1477 26.6797 33.3284 26.5728L36.1418 24.9082C36.7054 24.5746 36.8985 23.836 36.5731 23.2585Z" fill="#1ECE7A"/>
</svg>
