<svg width="35" height="32" viewBox="0 0 35 32" fill="none" xmlns="http://www.w3.org/2000/svg">
<path fill-rule="evenodd" clip-rule="evenodd" d="M30.8495 14.6101C32.5902 14.8585 33.9576 16.2103 34.2088 17.9311C34.5217 20.0745 33.0178 22.063 30.8495 22.3724C28.6813 22.6817 26.6699 21.1949 26.3569 19.0514C26.044 16.908 27.548 14.9195 29.7162 14.6101V13.5934C29.7162 11.3997 28.0638 9.61608 26.0329 9.61608C24.0598 9.61608 22.4063 11.3459 22.3497 13.4718V24.4845C22.3497 28.626 19.1724 32 15.2664 32C11.3605 32 8.18321 28.6299 8.18321 24.4845V23.5283C7.36156 23.5283 6.48324 22.9395 6.48324 21.2876V19.8787C2.84813 18.9617 0.25 15.8734 0.25 12.3694V11.2042H1.38332V3.92179C1.38707 2.55977 2.38141 1.39787 3.73948 1.16847C3.89701 0.687765 4.26406 0.302147 4.73977 0.117355C5.61767 -0.223588 6.60903 0.203624 6.95392 1.07149C7.2988 1.93936 6.86672 2.91941 5.98876 3.26035C5.11079 3.60129 4.11949 3.17415 3.77461 2.30621C3.03498 2.50305 2.51989 3.16463 2.51663 3.92179V11.2042H4.2166V12.3884C4.26017 14.3354 5.57864 16.0285 7.47149 16.568C8.48545 16.886 9.57414 16.886 10.5881 16.568C12.4831 16.0303 13.8046 14.337 13.8498 12.3884V11.2042H14.9831L14.9576 3.91675C14.9517 3.17058 14.4488 2.51768 13.7229 2.3135C13.5364 2.77215 13.1541 3.12569 12.6787 3.27912C11.7909 3.56565 10.8363 3.08641 10.5465 2.20881C10.2567 1.33114 10.7415 0.387435 11.6292 0.10097C12.517 -0.185565 13.4716 0.293674 13.7614 1.17128C15.1048 1.41153 16.0844 2.56383 16.0926 3.91339L16.1164 11.2042H17.2497V12.3722C17.2497 15.8722 14.6533 18.9594 11.0165 19.8787V21.2876C11.0165 22.9395 10.1382 23.5283 9.31652 23.5283V24.4845C9.31652 28.0098 11.9855 30.8796 15.2664 30.8796C18.5474 30.8796 21.2163 28.0137 21.2163 24.4845V13.445L21.2492 13.4394H21.2163C21.294 10.7124 23.4535 8.49403 26.0329 8.49403C28.6889 8.49403 30.8495 10.7818 30.8495 13.5917V14.6101ZM11.5832 1.68104C11.5832 1.99041 11.8369 2.24123 12.1498 2.24123C12.4628 2.24123 12.7165 1.99041 12.7165 1.68104C12.7165 1.37168 12.4628 1.12086 12.1498 1.12086C11.8369 1.12086 11.5832 1.37168 11.5832 1.68104ZM5.91658 1.68104C5.91658 1.37168 5.66286 1.12086 5.34992 1.12086C5.03698 1.12086 4.78326 1.37168 4.78326 1.68104C4.78326 1.99041 5.03698 2.24123 5.34992 2.24123C5.66286 2.24123 5.91658 1.99041 5.91658 1.68104ZM1.38332 12.3246V12.3694C1.38332 15.4857 3.81314 18.2278 7.16322 18.89C7.42176 18.9428 7.68299 18.9818 7.94578 19.007C8.74406 19.0859 9.54985 19.0468 10.3365 18.8911C13.6866 18.2278 16.1164 15.4857 16.1164 12.3694V12.3246H14.9831V12.3884C14.9398 14.8241 13.2998 16.949 10.9349 17.6335C9.69626 18.0212 8.36673 18.0212 7.12809 17.6335C4.76435 16.9481 3.12579 14.8232 3.08329 12.3884V12.3246H1.38332ZM7.61655 21.2876C7.61655 21.6237 7.67322 22.4079 8.18321 22.4079H9.31596C9.82595 22.4079 9.88262 21.6237 9.88262 21.2876V20.0988C9.85857 20.1019 9.83403 20.1037 9.80953 20.1056C9.78842 20.1072 9.76734 20.1088 9.74662 20.1112C9.70678 20.1154 9.66615 20.1188 9.62635 20.1221C9.60784 20.1237 9.58951 20.1253 9.57152 20.1269C9.30519 20.1504 9.03546 20.1666 8.76347 20.1666H8.73513C8.46257 20.1661 8.19228 20.1504 7.92425 20.1269C7.91004 20.1256 7.89584 20.1244 7.88164 20.1231C7.83917 20.1195 7.79671 20.1158 7.75425 20.1112C7.73597 20.1094 7.71759 20.108 7.69924 20.1065C7.67151 20.1044 7.64383 20.1022 7.61655 20.0988V21.2876ZM27.4496 18.4866C27.4496 20.0335 28.7181 21.2876 30.2829 21.2876C31.8468 21.2857 33.1143 20.0328 33.1161 18.4866C33.1161 16.9397 31.8476 15.6857 30.2829 15.6857C28.7181 15.6857 27.4496 16.9397 27.4496 18.4866ZM28.583 18.4867C28.583 17.5585 29.3441 16.8061 30.283 16.8061C31.2219 16.8061 31.983 17.5585 31.983 18.4867C31.983 19.4148 31.2219 20.1672 30.283 20.1672C29.3441 20.1672 28.583 19.4148 28.583 18.4867ZM29.7163 18.4867C29.7163 18.796 29.97 19.0468 30.283 19.0468C30.5959 19.0468 30.8496 18.796 30.8496 18.4867C30.8496 18.1773 30.5959 17.9265 30.283 17.9265C29.97 17.9265 29.7163 18.1773 29.7163 18.4867Z" fill="#2682D6"/>
</svg>
