<svg width="35" height="32" viewBox="0 0 35 32" fill="none" xmlns="http://www.w3.org/2000/svg">
<path fill-rule="evenodd" clip-rule="evenodd" d="M16.5859 0.666667C16.5859 0.298533 16.8833 0 17.25 0C17.6167 0 17.9141 0.298533 17.9141 0.666667V6C17.9141 6.36813 17.6167 6.66667 17.25 6.66667C16.8833 6.66667 16.5859 6.36813 16.5859 6V0.666667ZM10.2067 8.65259L6.45007 4.88126C6.19069 4.62099 5.77028 4.62093 5.51089 4.88126C5.25158 5.14159 5.25158 5.56373 5.51089 5.82413L9.26749 9.59546C9.52694 9.85579 9.94729 9.85579 10.2067 9.59546C10.466 9.33513 10.466 8.91299 10.2067 8.65259ZM28.0502 4.8813C28.3097 4.62103 28.73 4.62103 28.9894 4.8813C29.2488 5.14163 29.2488 5.56376 28.9894 5.82416L25.2328 9.5955C24.9733 9.85576 24.5531 9.85583 24.2936 9.5955C24.0343 9.3351 24.0343 8.91296 24.2936 8.65263L28.0502 4.8813ZM27.0817 26.6667H27.875C28.9734 26.6667 29.8671 27.5639 29.8671 28.6667V31.3334C29.8671 31.7015 29.5698 32 29.2031 32H5.29687C4.93011 32 4.63281 31.7015 4.63281 31.3334V28.6667C4.63281 27.5639 5.52651 26.6667 6.625 26.6667H7.41828L9.5804 14.5009C9.98236 12.2784 11.9057 10.6667 14.1541 10.6667H20.3458C22.5938 10.6667 24.5174 12.2783 24.9198 14.4986L27.0817 26.6667ZM14.1541 12C12.5482 12 11.1743 13.1512 10.8875 14.7371L8.76739 26.6667H25.7326L23.6127 14.735C23.3257 13.1512 21.9516 12 20.3458 12H14.1541ZM5.96094 30.6667H28.539V28.6667C28.539 28.2991 28.2411 28 27.875 28H6.625C6.25883 28 5.96094 28.2991 5.96094 28.6667V30.6667ZM21.2344 16.6667C21.2344 16.2987 21.5319 16 21.8984 16C22.265 16 22.5625 16.2987 22.5625 16.6667C22.5625 17.0347 22.265 17.3333 21.8984 17.3333C21.5319 17.3333 21.2344 17.0347 21.2344 16.6667ZM24.0393 24.5475L23.0651 19.1642C22.9996 18.8018 22.6533 18.5613 22.2931 18.6274C21.9322 18.6932 21.6928 19.0402 21.7584 19.4025L22.7325 24.7858C22.7986 25.1509 23.1471 25.3882 23.5046 25.3226C23.8655 25.2568 24.1049 24.9097 24.0393 24.5475ZM27.875 16H33.5859C33.9526 16 34.25 16.2985 34.25 16.6667C34.25 17.0348 33.9526 17.3333 33.5859 17.3333H27.875C27.5083 17.3333 27.2109 17.0348 27.2109 16.6667C27.2109 16.2985 27.5083 16 27.875 16ZM6.62499 16H0.914061C0.5473 16 0.25 16.2985 0.25 16.6667C0.25 17.0348 0.5473 17.3333 0.914061 17.3333H6.62499C6.99175 17.3333 7.28905 17.0348 7.28905 16.6667C7.28905 16.2985 6.99175 16 6.62499 16Z" fill="#D69026"/>
</svg>
