<svg width="37" height="38" viewBox="0 0 37 38" fill="none" xmlns="http://www.w3.org/2000/svg">
<path d="M15.3359 27.719C15.3359 29.5069 16.7553 30.9614 18.5 30.9614C20.2447 30.9614 21.6641 29.5069 21.6641 27.719C21.6641 25.9311 20.2447 24.4766 18.5 24.4766C16.7553 24.4766 15.3359 25.9311 15.3359 27.719ZM18.5 26.6382C19.0816 26.6382 19.5547 27.123 19.5547 27.719C19.5547 28.315 19.0816 28.7998 18.5 28.7998C17.9184 28.7998 17.4453 28.315 17.4453 27.719C17.4453 27.123 17.9184 26.6382 18.5 26.6382Z" fill="#D69026"/>
<path d="M1.55469 30.9616H9.36613L11.3342 34.455C11.474 34.7033 11.7044 34.8844 11.9746 34.9586C12.2446 35.0328 12.5326 34.9939 12.7749 34.8506L13.8406 34.22C14.4337 33.869 15.3359 34.3207 15.3359 35.0679V36.3659C15.3359 36.9628 15.8081 37.4468 16.3906 37.4468H20.6093C21.1918 37.4468 21.664 36.9628 21.664 36.3659V35.105C21.664 34.3271 22.5473 33.8579 23.2198 34.2558L24.2249 34.8506C24.729 35.149 25.3745 34.9719 25.6657 34.455L27.6339 30.9616H35.4453C36.0278 30.9616 36.5 30.4776 36.5 29.8807V1.63409C36.5 1.03716 36.0278 0.553223 35.4453 0.553223H22.7188C20.9955 0.553223 19.4629 1.4048 18.5 2.7187C17.5371 1.4048 16.0045 0.553223 14.2812 0.553223H1.55469C0.972219 0.553223 0.5 1.03716 0.5 1.63409V29.8807C0.5 30.4776 0.972219 30.9616 1.55469 30.9616ZM19.5547 5.95755C19.5547 4.16958 20.9741 2.71495 22.7188 2.71495H34.3906V28.7999H26.9375C26.8565 28.7999 26.778 28.8101 26.7022 28.8278L26.2839 28.5803C25.6459 28.2028 25.6696 27.2211 26.3144 26.8396L27.3892 26.2037C27.8933 25.9054 28.0665 25.2441 27.7753 24.7272L25.6659 20.983C25.3749 20.4664 24.7295 20.2888 24.2251 20.5874L23.2265 21.1782C22.5532 21.5767 21.6641 21.1163 21.6641 20.3403V19.0721C21.6641 18.4751 21.1919 17.9912 20.6094 17.9912H19.5548V5.95755H19.5547ZM19.5547 20.1529V20.3404C19.5547 22.7948 22.2138 24.2737 24.2812 23.0504L24.3664 22.9999L25.4211 24.872L25.2597 24.9675C23.2209 26.1737 23.1741 29.2364 25.2292 30.4524L25.4211 30.5659L24.3664 32.438L24.2746 32.3837C22.2159 31.1656 19.5547 32.6405 19.5547 35.105V35.285H17.4453V35.0679C17.4453 32.6839 14.8088 31.1509 12.7859 32.3479L12.6335 32.438L11.5789 30.566L11.83 30.4174C13.8909 29.198 13.7084 26.132 11.6803 24.932L11.5789 24.8721L12.6336 22.9999L12.76 23.0747C14.812 24.2889 17.4453 22.7501 17.4453 20.3403V20.1529H19.5547ZM2.60938 2.71495H14.2812C16.0259 2.71495 17.4453 4.16958 17.4453 5.95755V17.9912H16.3906C15.8082 17.9912 15.3359 18.4751 15.3359 19.0721V20.3404C15.3359 21.0861 14.4693 21.59 13.8148 21.2027L12.7749 20.5874C12.2708 20.2891 11.6254 20.4659 11.3342 20.983L9.2248 24.7272C8.9337 25.2438 9.10646 25.9053 9.61081 26.2037L10.6256 26.8041C11.2733 27.1873 11.3977 28.1769 10.7753 28.5453L10.2978 28.8278C10.222 28.8101 10.1435 28.7999 10.0625 28.7999H2.60938V2.71495Z" fill="#D69026"/>
<path d="M5.77344 9.27246H14.2812C14.8637 9.27246 15.3359 8.78855 15.3359 8.19165C15.3359 7.59475 14.8637 7.11084 14.2812 7.11084H5.77344C5.19097 7.11084 4.71875 7.59475 4.71875 8.19165C4.71875 8.78855 5.19097 9.27246 5.77344 9.27246Z" fill="#D69026"/>
<path d="M15.3359 12.5146C15.3359 11.9176 14.8637 11.4336 14.2812 11.4336H5.77344C5.19097 11.4336 4.71875 11.9176 4.71875 12.5146C4.71875 13.1117 5.19097 13.5957 5.77344 13.5957H14.2812C14.8637 13.5957 15.3359 13.1117 15.3359 12.5146Z" fill="#D69026"/>
<path d="M22.7188 13.5957H31.2266C31.809 13.5957 32.2812 13.1117 32.2812 12.5146C32.2812 11.9176 31.809 11.4336 31.2266 11.4336H22.7188C22.1363 11.4336 21.6641 11.9176 21.6641 12.5146C21.6641 13.1117 22.1363 13.5957 22.7188 13.5957Z" fill="#D69026"/>
<path d="M22.7188 9.27246H31.2266C31.809 9.27246 32.2812 8.78855 32.2812 8.19165C32.2812 7.59475 31.809 7.11084 31.2266 7.11084H22.7188C22.1363 7.11084 21.6641 7.59475 21.6641 8.19165C21.6641 8.78855 22.1363 9.27246 22.7188 9.27246Z" fill="#D69026"/>
</svg>
