<svg width="35" height="33" viewBox="0 0 35 33" fill="none" xmlns="http://www.w3.org/2000/svg">
<path fill-rule="evenodd" clip-rule="evenodd" d="M31.0993 15.1101C32.8399 15.3585 34.2074 16.7103 34.4586 18.4311C34.7715 20.5745 33.2676 22.563 31.0993 22.8724C28.9311 23.1817 26.9196 21.6949 26.6067 19.5514C26.2938 17.408 27.7977 15.4195 29.966 15.1101V14.0934C29.966 11.8997 28.3136 10.1161 26.2827 10.1161C24.3096 10.1161 22.6561 11.8459 22.5994 13.9718V24.9845C22.5994 29.126 19.4222 32.5 15.5162 32.5C11.6102 32.5 8.433 29.1299 8.433 24.9845V24.0283C7.61134 24.0283 6.73302 23.4395 6.73302 21.7876V20.3787C3.09791 19.4617 0.499786 16.3734 0.499786 12.8694V11.7042H1.6331V4.42179C1.63686 3.05977 2.6312 1.89787 3.98926 1.66847C4.1468 1.18776 4.51385 0.802147 4.98956 0.617355C5.86745 0.276412 6.85882 0.703624 7.2037 1.57149C7.54858 2.43936 7.11651 3.41941 6.23854 3.76035C5.36058 4.10129 4.36928 3.67415 4.0244 2.80621C3.28477 3.00305 2.76968 3.66463 2.76642 4.42179V11.7042H4.46639V12.8884C4.50995 14.8354 5.82842 16.5285 7.72127 17.068C8.73524 17.386 9.82393 17.386 10.8379 17.068C12.7329 16.5303 14.0544 14.837 14.0996 12.8884V11.7042H15.2329L15.2074 4.41675C15.2015 3.67058 14.6986 3.01768 13.9726 2.8135C13.7861 3.27215 13.4039 3.6257 12.9285 3.77912C12.0407 4.06565 11.0861 3.58641 10.7963 2.70881C10.5065 1.83114 10.9912 0.887435 11.879 0.60097C12.7668 0.314435 13.7214 0.793674 14.0112 1.67128C15.3546 1.91153 16.3342 3.06383 16.3424 4.41339L16.3662 11.7042H17.4995V12.8722C17.4995 16.3722 14.9031 19.4594 11.2663 20.3787V21.7876C11.2663 23.4395 10.388 24.0283 9.56631 24.0283V24.9845C9.56631 28.5098 12.2353 31.3796 15.5162 31.3796C18.7972 31.3796 21.4661 28.5137 21.4661 24.9845V13.945L21.499 13.9394H21.4661C21.5438 11.2124 23.7033 8.99403 26.2827 8.99403C28.9386 8.99403 31.0993 11.2818 31.0993 14.0917V15.1101ZM11.8329 2.18105C11.8329 2.49041 12.0867 2.74123 12.3996 2.74123C12.7125 2.74123 12.9663 2.49041 12.9663 2.18105C12.9663 1.87168 12.7125 1.62086 12.3996 1.62086C12.0867 1.62086 11.8329 1.87168 11.8329 2.18105ZM6.16636 2.18105C6.16636 1.87168 5.91264 1.62086 5.59971 1.62086C5.28677 1.62086 5.03305 1.87168 5.03305 2.18105C5.03305 2.49041 5.28677 2.74123 5.59971 2.74123C5.91264 2.74123 6.16636 2.49041 6.16636 2.18105ZM1.6331 12.8246V12.8694C1.6331 15.9857 4.06293 18.7278 7.41301 19.39C7.67155 19.4428 7.93278 19.4818 8.19557 19.507C8.99384 19.5859 9.79963 19.5468 10.5863 19.3911C13.9364 18.7278 16.3662 15.9857 16.3662 12.8694V12.8246H15.2329V12.8884C15.1896 15.3241 13.5496 17.449 11.1847 18.1335C9.94604 18.5212 8.61652 18.5212 7.37788 18.1335C5.01414 17.4481 3.37557 15.3232 3.33308 12.8884V12.8246H1.6331ZM7.86634 21.7876C7.86634 22.1237 7.923 22.9079 8.433 22.9079H9.56574C10.0757 22.9079 10.1324 22.1237 10.1324 21.7876V20.5988C10.1084 20.6019 10.0838 20.6037 10.0593 20.6056C10.0382 20.6072 10.0171 20.6088 9.9964 20.6112C9.95657 20.6154 9.91594 20.6188 9.87614 20.6221C9.85763 20.6237 9.8393 20.6253 9.82131 20.6269C9.55498 20.6504 9.28525 20.6666 9.01325 20.6666H8.98492C8.71236 20.6661 8.44206 20.6504 8.17403 20.6269C8.15983 20.6256 8.14563 20.6244 8.13142 20.6231C8.08896 20.6195 8.0465 20.6158 8.00404 20.6112C7.98575 20.6094 7.96738 20.608 7.94902 20.6065C7.9213 20.6044 7.89361 20.6022 7.86634 20.5988V21.7876ZM27.6994 18.9866C27.6994 20.5335 28.9679 21.7876 30.5326 21.7876C32.0966 21.7857 33.3641 20.5328 33.3659 18.9866C33.3659 17.4397 32.0974 16.1857 30.5326 16.1857C28.9679 16.1857 27.6994 17.4397 27.6994 18.9866ZM28.8328 18.9867C28.8328 18.0585 29.5939 17.3061 30.5328 17.3061C31.4716 17.3061 32.2327 18.0585 32.2327 18.9867C32.2327 19.9148 31.4716 20.6672 30.5328 20.6672C29.5939 20.6672 28.8328 19.9148 28.8328 18.9867ZM29.9661 18.9867C29.9661 19.296 30.2198 19.5468 30.5328 19.5468C30.8457 19.5468 31.0994 19.296 31.0994 18.9867C31.0994 18.6773 30.8457 18.4265 30.5328 18.4265C30.2198 18.4265 29.9661 18.6773 29.9661 18.9867Z" fill="#2682D6"/>
</svg>
