<svg width="37" height="37" viewBox="0 0 37 37" fill="none" xmlns="http://www.w3.org/2000/svg">
<path fill-rule="evenodd" clip-rule="evenodd" d="M34.7956 0.5H26.6478C25.6852 0.5 24.9019 1.28155 24.9019 2.24194V6.8871C24.9019 7.84748 25.6852 8.62903 26.6478 8.62903H28.2023L27.6005 12.1309L33.2166 8.62903H34.7956C35.7582 8.62903 36.5415 7.84748 36.5415 6.8871V2.24194C36.5415 1.28155 35.7582 0.5 34.7956 0.5ZM35.3775 6.8871C35.3775 7.20703 35.1162 7.46774 34.7956 7.46774H32.8826L29.1864 9.77232L29.5827 7.46774H26.6478C26.3271 7.46774 26.0658 7.20703 26.0658 6.8871V2.24194C26.0658 1.922 26.3271 1.66129 26.6478 1.66129H34.7956C35.1162 1.66129 35.3775 1.922 35.3775 2.24194V6.8871ZM29.7826 31.8549L28.4353 27.8217C27.9644 26.4137 26.7632 25.3743 25.299 25.1084L21.4096 24.4023V24.1016C22.0864 23.7096 22.6754 23.1853 23.1445 22.5646H24.3195C25.2821 22.5646 26.0654 21.783 26.0654 20.8226V13.8549C26.0654 9.69284 22.6713 6.30652 18.4997 6.30652C14.328 6.30652 10.9339 9.69284 10.9339 13.8549V17.9194C10.9339 19.0389 11.7318 19.9755 12.7898 20.1938C13.1163 21.8626 14.1616 23.2747 15.5897 24.1016V24.4023L11.6998 25.1084C10.2361 25.3743 9.03429 26.4137 8.56404 27.8217L8.33125 28.5191L6.34902 26.5414C6.12204 26.315 6.12204 25.9463 6.34902 25.7198L8.64785 23.4268L4.33303 19.1219L1.73506 21.7139C0.965676 22.4816 0.541992 23.5023 0.541992 24.5881C0.541992 25.6739 0.965676 26.6941 1.73506 27.4617L9.60056 35.3092C10.3699 36.0768 11.3931 36.5001 12.4814 36.5001C13.5697 36.5001 14.5922 36.0768 15.3436 35.3266L18.1784 32.7352L17.2944 31.8549H29.7826ZM24.9015 20.8226C24.9015 21.1432 24.6402 21.4033 24.3195 21.4033H23.83C23.9988 21.0195 24.1269 20.6148 24.2095 20.1938C24.4586 20.1421 24.6879 20.0434 24.9015 19.9192V20.8226ZM24.3195 18.9193V16.9196C24.6658 17.121 24.9015 17.4915 24.9015 17.9194C24.9015 18.3474 24.6658 18.7178 24.3195 18.9193ZM12.6798 18.9193C12.3335 18.7178 12.0978 18.3474 12.0978 17.9194C12.0978 17.4915 12.3335 17.121 12.6798 16.9196V18.9193ZM12.6798 15.0162V15.6793C12.4726 15.7333 12.2783 15.8146 12.0978 15.9197V13.8549C12.0978 10.3333 14.9699 7.46781 18.4997 7.46781C22.0294 7.46781 24.9015 10.3333 24.9015 13.8549V15.9197C24.7211 15.8146 24.5267 15.7327 24.3195 15.6793V15.0162H23.7375C22.0166 15.0162 20.3987 14.3473 19.1812 13.1332L18.4997 12.4532L17.8182 13.1332C16.6006 14.3473 14.9827 15.0162 13.2618 15.0162H12.6798ZM13.8438 19.0807V16.1554C15.5915 16.0242 17.221 15.3048 18.4997 14.0918C19.7783 15.3048 21.4078 16.0248 23.1555 16.1554V19.0807C23.1555 19.9273 22.9239 20.7193 22.5258 21.4033H18.4997V22.5646H21.569C20.7484 23.2852 19.6758 23.7259 18.4997 23.7259C15.9325 23.7259 13.8438 21.6419 13.8438 19.0807ZM20.2456 24.6195V24.6468L18.4997 26.3887L16.7537 24.6468V24.6195C17.3054 24.7925 17.8915 24.8872 18.4997 24.8872C19.1078 24.8872 19.6939 24.7925 20.2456 24.6195ZM9.66749 28.1887C10.0033 27.183 10.8617 26.4404 11.9075 26.2499L15.9756 25.5125L18.4997 28.0308L21.0231 25.5131L25.0906 26.2505C26.1364 26.441 26.9949 27.183 27.3307 28.1893L28.1681 30.6936H16.1304L13.8636 28.432L11.3448 30.7052C11.1254 30.9253 10.7418 30.9253 10.5218 30.7052L9.25078 29.4371L9.66749 28.1887ZM4.33245 20.764L7.00142 23.4268L6.36939 24.0574L3.70041 21.3946L4.33245 20.764ZM14.5375 34.4893C13.9881 35.0363 13.2572 35.3388 12.4802 35.3388C11.7033 35.3388 10.9723 35.0363 10.4223 34.4881L2.55682 26.6413C2.00743 26.0932 1.70479 25.3639 1.70479 24.5887C1.70479 23.813 2.00743 23.0837 2.55682 22.5356L2.87691 22.2162L5.54588 24.879L5.52493 24.8999C4.84459 25.5793 4.84459 26.6843 5.52493 27.3636L9.69833 31.5274C10.0283 31.8561 10.4665 32.0378 10.9333 32.0378C11.4 32.0378 11.8383 31.8566 12.1467 31.5477L12.1904 31.5088L14.8716 34.1839L14.5375 34.4893ZM15.7306 33.3977L13.0552 30.7285L13.824 30.0352L16.4947 32.6997L15.7306 33.3977ZM27.23 2.82263H34.2138V3.98392H27.23V2.82263ZM31.8858 5.14514H27.23V6.30643H31.8858V5.14514ZM33.0493 5.14514H34.2133V6.30643H33.0493V5.14514ZM18.4998 2.24194C10.8956 2.24194 4.34534 7.48981 2.64246 14.81L1.5396 12.9758L0.541504 13.5732L2.58717 16.9741L5.99585 14.9331L5.39699 13.9373L3.81981 14.8814C5.46915 8.18485 11.5049 3.40323 18.4998 3.40323C20.0286 3.40323 21.5371 3.62969 22.9833 4.07678L23.3279 2.96775C21.7699 2.48581 20.1456 2.24194 18.4998 2.24194ZM32.8497 11.3157L36.2583 13.3566L35.6595 14.3524L33.949 13.3288C34.5083 14.9894 34.7952 16.7238 34.7952 18.5C34.7952 22.2184 33.5044 25.8544 31.1602 28.7368L30.2563 28.0052C32.4324 25.329 33.6313 21.9531 33.6313 18.5C33.6313 16.8225 33.3572 15.1857 32.8211 13.6208L31.8027 15.3146L30.8046 14.7171L32.8497 11.3157Z" fill="#D69026"/>
</svg>
