<svg width="36" height="38" viewBox="0 0 36 38" fill="none" xmlns="http://www.w3.org/2000/svg">
<path fill-rule="evenodd" clip-rule="evenodd" d="M35.7983 0.576002C34.9172 0.522701 29.6753 0.346138 23.5844 3.22156C23.512 3.25551 23.4482 3.30348 23.3955 3.36175C19.2438 5.36199 14.7528 8.7738 11.0938 14.5782L6.39602 14.2572C6.13446 14.2307 5.89266 14.3967 5.79725 14.6463L2.15855 24.1765C2.06074 24.4323 2.14055 24.7231 2.35415 24.8897C2.46096 24.9733 2.58934 25.0151 2.7171 25.0151C2.84366 25.0151 2.97029 24.9746 3.0771 24.8922L6.09727 22.5712L7.67771 22.895L10.0611 25.3376L9.40832 26.5396C8.61452 26.139 7.69411 26.0405 6.79601 26.2736C5.59431 26.5866 4.61156 27.4265 4.10039 28.5794L0.553515 36.5769C0.449734 36.8105 0.49832 37.0854 0.675295 37.2661C0.789903 37.3842 0.943464 37.4463 1.09949 37.4463C1.18351 37.4463 1.26809 37.4278 1.3479 37.3909L9.15152 33.7553C10.2758 33.2321 11.0954 32.2249 11.4007 30.9933C11.6362 30.0436 11.526 29.0683 11.1022 28.2365L12.2155 27.5461L14.6986 30.0908L15.0143 31.7092L12.7495 34.8037C12.5887 35.0238 12.5893 35.3263 12.7519 35.5452C12.8677 35.7014 13.0458 35.7881 13.2294 35.7881C13.3026 35.7881 13.3764 35.774 13.4484 35.7469L22.7477 32.0178C22.9913 31.9201 23.1448 31.6717 23.1274 31.4043L22.8141 26.5879C28.4762 22.8389 31.8051 18.2378 33.7571 13.984C33.6743 14.062 33.5706 14.1157 33.4567 14.1368C33.4213 14.1429 33.3859 14.146 33.3505 14.146C33.1928 14.146 33.0398 14.0821 32.9264 13.9659L32.628 13.6601C30.4588 18.2718 26.2695 23.8486 18.1891 27.8263C17.2882 28.269 16.3566 28.6839 15.3981 29.069L13.3527 26.9728L18.2184 23.8248C18.3486 23.7401 18.4405 23.6089 18.4785 23.4598C18.4914 23.4094 18.4982 23.357 18.4982 23.3035V19.6144C18.4983 19.275 18.2295 18.9995 17.8983 18.9995H13.8558C13.7342 18.9995 13.618 19.0373 13.5206 19.1046C13.4422 19.1584 13.3759 19.2314 13.3287 19.3191L13.2507 19.4642L10.6673 24.2213L8.67356 22.1774C9.11674 21.0189 9.60036 19.8988 10.1212 18.8234C13.8672 11.1057 19.0272 6.87004 23.7413 4.55297L30.8877 2.19575C32.9375 1.82191 34.5167 1.7803 35.293 1.7915C35.3064 2.65333 35.2653 4.47779 34.8255 6.82343C35.2674 4.47323 35.3078 2.64977 35.2938 1.78958C34.5352 1.77654 33.0035 1.81037 31.0198 2.15219L35.7983 0.576002ZM31.0198 2.15219C29.2553 2.45622 27.1332 3.00391 24.8792 3.97901L24.9113 4.01198C27.1046 3.06025 29.1628 2.51035 30.8877 2.19575L31.0198 2.15219ZM8.25758 28.6586L8.82331 27.6169C8.49224 27.4599 8.12946 27.3792 7.75836 27.3792C7.53758 27.3792 7.31385 27.4076 7.09125 27.4653C6.24469 27.6854 5.55233 28.2769 5.19297 29.0873L2.30779 35.5932L8.65533 32.6363C9.44606 32.2673 10.0232 31.5584 10.238 30.6908C10.3898 30.0772 10.334 29.4507 10.088 28.9084L9.07706 29.4944C8.84306 29.6303 8.54846 29.5897 8.3577 29.3936C8.2047 29.2372 8.14855 29.012 8.20074 28.805C8.21326 28.7547 8.23214 28.7055 8.25758 28.6586ZM9.46494 17.4372C9.75845 16.8651 10.0625 16.306 10.3767 15.761L6.75419 15.5138L4.04423 22.6116L5.59151 21.4225C5.72827 21.318 5.90229 21.2775 6.06907 21.3113L7.59623 21.6241C8.1738 20.1246 8.7997 18.7315 9.46494 17.4372ZM11.2392 25.697L10.4055 27.2322L17.2981 22.9574V20.2297H14.2096L11.3514 25.5482C11.3213 25.6041 11.2833 25.6541 11.2392 25.697ZM15.9376 30.1731L16.2429 31.7375C16.2765 31.9091 16.2369 32.0874 16.1349 32.227L14.9746 33.8127L21.9005 31.0353L21.6587 27.3235C21.1317 27.6426 20.5912 27.9515 20.0382 28.2498C18.771 28.9346 17.4066 29.5788 15.9376 30.1731ZM26.9959 10.2921C24.9782 8.22426 21.696 8.22426 19.6783 10.2921C17.6606 12.3599 17.6606 15.7238 19.6783 17.7916C20.6868 18.8258 22.0121 19.3423 23.3368 19.3423C24.6621 19.3423 25.9868 18.8252 26.9959 17.7916C29.0136 15.7238 29.0136 12.3598 26.9959 10.2921ZM26.1476 16.9221C24.5979 18.5103 22.0763 18.5103 20.5267 16.9221C18.977 15.3339 18.977 12.7497 20.5267 11.1615C21.3012 10.3677 22.3193 9.97047 23.3369 9.97047C24.3544 9.97047 25.3726 10.3677 26.1477 11.1615C27.6973 12.7497 27.6973 15.3339 26.1476 16.9221ZM22.1437 15.2644C22.8019 15.9389 23.8722 15.9396 24.5297 15.2644C24.7637 15.024 25.144 15.024 25.378 15.2644C25.6126 15.5048 25.6126 15.8935 25.378 16.1339C24.8159 16.7106 24.0768 16.999 23.337 16.999C22.5979 16.999 21.8581 16.7106 21.2953 16.1339C20.1698 14.9804 20.1698 13.1031 21.2953 11.9496C22.4208 10.7961 24.2531 10.7961 25.378 11.9496C25.6126 12.19 25.6126 12.5786 25.378 12.819C25.1441 13.0594 24.7637 13.0594 24.5297 12.819C23.8715 12.1445 22.8012 12.1451 22.1437 12.819C21.4861 13.4936 21.4861 14.5899 22.1437 15.2644Z" fill="#2682D6"/>
</svg>
