<svg width="27" height="38" viewBox="0 0 27 38" fill="none" xmlns="http://www.w3.org/2000/svg">
<path fill-rule="evenodd" clip-rule="evenodd" d="M12.75 1.32156C12.75 0.897315 13.086 0.552979 13.5 0.552979C13.914 0.552979 14.25 0.897315 14.25 1.32156V4.39573C14.25 4.81997 13.914 5.16431 13.5 5.16431C13.086 5.16431 12.75 4.81997 12.75 4.3958V1.32156ZM22.5 12.8508H25.5C25.914 12.8508 26.2501 13.1951 26.2501 13.6193C26.2501 14.0436 25.914 14.3879 25.5 14.3879H22.5C22.086 14.3879 21.75 14.0437 21.75 13.6194C21.75 13.1952 22.086 12.8508 22.5 12.8508ZM4.50004 12.8508H1.50002C1.08602 12.8508 0.75 13.1952 0.75 13.6194C0.75 14.0437 1.08602 14.3879 1.50002 14.3879H4.50004C4.91404 14.3879 5.25006 14.0436 5.25006 13.6193C5.25006 13.1951 4.91404 12.8508 4.50004 12.8508ZM21.4546 4.38038C21.7471 4.08056 22.2226 4.08056 22.5151 4.38038C22.8076 4.6802 22.8076 5.16762 22.5151 5.46743L20.3942 7.64146C20.2486 7.79065 20.0567 7.86597 19.8646 7.86597C19.6726 7.86597 19.4807 7.79058 19.3336 7.64146C19.0411 7.34165 19.0411 6.85423 19.3336 6.55441L21.4546 4.38038ZM7.66656 6.55441L5.54552 4.38038C5.25302 4.08056 4.7775 4.08056 4.485 4.38038C4.1925 4.6802 4.1925 5.16762 4.485 5.46743L6.60449 7.64146C6.75151 7.79058 6.94347 7.86597 7.13549 7.86597C7.32751 7.86597 7.51947 7.79065 7.66649 7.64146C7.95906 7.34165 7.95906 6.85423 7.66656 6.55441ZM16.9995 22.0896C18.501 21.0658 20.523 21.4209 21.603 22.8981C22.2525 23.7851 22.1925 25.021 21.4619 25.8403L15.3915 32.6286C15.3215 32.7066 15.2495 32.7822 15.1756 32.8554C15.5049 32.9365 15.75 33.2406 15.75 33.603V36.6781C15.75 37.1025 15.414 37.447 15 37.447C14.5861 37.447 14.25 37.1026 14.25 36.6782V34.3719H5.25004V36.6782C5.25004 37.1026 4.91402 37.447 4.50002 37.447C4.08602 37.447 3.75 37.1026 3.75 36.6782V33.603C3.75 33.1787 4.08602 32.8342 4.50002 32.8342H4.76173C3.2307 31.565 2.25 29.6247 2.25 27.4544V21.3056C2.25 20.0343 3.25947 18.9998 4.5 18.9998C4.7925 18.9998 5.0715 19.0582 5.32954 19.1611C5.58899 18.1835 6.46502 17.4625 7.50002 17.4625C7.79251 17.4625 8.07151 17.521 8.32949 17.6239C8.58894 16.6463 9.46496 15.9253 10.5 15.9253C10.7625 15.9253 11.016 15.9715 11.25 16.056V13.6195C11.25 12.3482 12.2595 11.3137 13.5 11.3137C14.7405 11.3137 15.75 12.3482 15.75 13.6195V22.9427L16.9995 22.0896ZM14.2845 31.588C13.5888 32.3674 12.6035 32.8187 11.5747 32.8342H8.9345C6.06959 32.7982 3.74997 30.3989 3.74997 27.4544V21.3056C3.74997 20.8813 4.086 20.537 4.5 20.537C4.914 20.537 5.25002 20.8813 5.25002 21.3056V22.0742C5.25002 22.4985 5.58604 22.8428 6.00004 22.8428C6.41404 22.8428 6.74999 22.4985 6.74999 22.0742V19.7684C6.74999 19.3441 7.08602 18.9998 7.50002 18.9998C7.91401 18.9998 8.25004 19.3441 8.25004 19.7684V22.0742C8.25004 22.4985 8.58606 22.8428 9.00006 22.8428C9.41406 22.8428 9.75008 22.4985 9.75008 22.0742V18.2312C9.75008 17.807 10.0861 17.4626 10.5001 17.4626C10.9141 17.4626 11.25 17.8069 11.25 18.2312V22.0741C11.25 22.4984 11.586 22.8428 12 22.8428C12.414 22.8428 12.75 22.4984 12.75 22.0741V13.6195C12.75 13.1953 13.0861 12.8509 13.5001 12.8509C13.9141 12.8509 14.2501 13.1953 14.2501 13.6195V24.38C14.2501 24.6644 14.4046 24.9226 14.6476 25.0564C14.8905 25.1901 15.1875 25.1747 15.417 25.0179L17.8321 23.367C18.6705 22.7967 19.7986 22.9934 20.403 23.8189C20.619 24.1141 20.5995 24.5276 20.3549 24.7997L14.2845 31.588ZM8.25 13.6193C8.25 10.6524 10.605 8.23901 13.5 8.23901C16.395 8.23901 18.75 10.6524 18.75 13.6192C18.75 14.0435 18.414 14.3879 18 14.3879C17.586 14.3879 17.25 14.0435 17.25 13.6192C17.25 11.501 15.567 9.77621 13.5 9.77621C11.433 9.77621 9.75005 11.501 9.75005 13.6193C9.75005 14.0436 9.41402 14.3879 9.00002 14.3879C8.58602 14.3879 8.25 14.0436 8.25 13.6193Z" fill="#D62642"/>
</svg>
