<svg width="37" height="37" viewBox="0 0 37 37" fill="none" xmlns="http://www.w3.org/2000/svg">
<path fill-rule="evenodd" clip-rule="evenodd" d="M27.7351 4.48969L18.7332 0.550091C18.5801 0.483303 18.4062 0.483303 18.2531 0.550091L9.25119 4.48969C9.03259 4.58507 8.89124 4.80083 8.89111 5.03929V14.4593C8.89437 16.5763 9.91187 18.5636 11.6277 19.8041L17.8492 24.2903C18.2335 24.5683 18.7528 24.5683 19.1371 24.2903L25.3586 19.8047C27.0744 18.5642 28.0919 16.5769 28.0952 14.4599V5.03929C28.0951 4.80083 27.9537 4.58507 27.7351 4.48969ZM26.8949 14.4599C26.8922 16.1914 26.0599 17.8168 24.6565 18.8315L18.4932 23.2757L12.3298 18.8315C10.9264 17.8168 10.0941 16.1914 10.0914 14.4599V5.43169L18.4932 1.75489L26.8949 5.43169V14.4599ZM18.2535 3.17033L11.6521 6.05993C11.4335 6.15531 11.2921 6.37107 11.292 6.60953V14.4605C11.2938 15.8067 11.941 17.0704 13.0324 17.8589L18.1424 21.5441C18.3521 21.6953 18.635 21.6953 18.8446 21.5441L23.9547 17.8589C25.046 17.0704 25.6932 15.8067 25.6951 14.4605V6.60953C25.6949 6.37107 25.5536 6.15531 25.335 6.05993L18.7336 3.17033C18.5805 3.10354 18.4065 3.10354 18.2535 3.17033ZM24.4948 7.00133V14.4605C24.493 15.4211 24.0311 16.3228 23.2525 16.8857L18.4935 20.3177L13.7345 16.8857C12.9559 16.3228 12.4941 15.4211 12.4922 14.4605V7.00133L18.4935 4.37513L24.4948 7.00133ZM4.16352 17.3873L5.46159 20.4197C6.47342 19.7495 7.8044 19.8186 8.74129 20.5901C9.75063 21.5177 10.9131 22.2636 12.177 22.7945C12.9718 23.0752 13.6671 23.5822 14.1772 24.2531C15.0474 25.3768 15.5111 26.7621 15.4927 28.1831V29.2997C16.1556 29.2997 16.693 29.8369 16.693 30.4997V35.2997C16.693 35.9624 16.1556 36.4997 15.4927 36.4997H8.89132C8.22844 36.4997 7.69107 35.9624 7.69107 35.2997V30.4997C7.69172 30.1962 7.80804 29.9044 8.01634 29.6837L4.31775 25.9853C3.77357 25.4422 3.33217 24.8051 3.01487 24.1049L0.662974 18.9323C0.386927 18.3071 0.46545 17.5822 0.868963 17.0306C1.27248 16.479 1.93968 16.1845 2.61923 16.2581C3.29879 16.3317 3.88747 16.7621 4.16352 17.3873ZM8.89132 35.2997H15.4927V30.4997H8.89132V35.2997ZM14.2925 28.1831C14.3107 27.0346 13.94 25.9137 13.2404 25.0025C12.8732 24.5137 12.3718 24.1422 11.7971 23.9333C10.3868 23.3595 9.09017 22.5386 7.96833 21.5093C7.4071 21.0469 6.60084 21.0335 6.02451 21.4769C6.24096 21.8005 6.48881 22.102 6.76447 22.3769L9.50585 25.1183C9.66186 25.2689 9.72443 25.492 9.66951 25.7018C9.61458 25.9116 9.45072 26.0754 9.2409 26.1303C9.03108 26.1852 8.80795 26.1227 8.65727 25.9667L5.91589 23.2253C5.2727 22.5842 4.75886 21.8254 4.40237 20.9903L3.05988 17.8601C2.94797 17.5976 2.68999 17.4273 2.40454 17.4275C2.16198 17.4276 1.93608 17.5509 1.8048 17.7548C1.67352 17.9587 1.65484 18.2153 1.75521 18.4361L4.10711 23.6087C4.36528 24.1777 4.72412 24.6954 5.16633 25.1369L9.33002 29.2997H14.2925V28.1831ZM13.6927 32.2997H13.0927C12.7613 32.2997 12.4927 32.5683 12.4927 32.8997C12.4927 33.2311 12.7613 33.4997 13.0927 33.4997H13.6927C14.024 33.4997 14.2927 33.2311 14.2927 32.8997C14.2927 32.5683 14.024 32.2997 13.6927 32.2997ZM36.3244 18.9322L33.9725 24.1048C33.6552 24.8051 33.2138 25.4421 32.6697 25.9852L28.9711 29.6836C29.1794 29.9044 29.2957 30.1962 29.2963 30.4996V35.2996C29.2963 35.9624 28.759 36.4996 28.0961 36.4996H21.4947C20.8318 36.4996 20.2944 35.9624 20.2944 35.2996V30.4996C20.2944 29.8369 20.8318 29.2996 21.4947 29.2996V28.183C21.4759 26.7614 21.9396 25.3754 22.8102 24.2512C23.3203 23.5804 24.0156 23.0734 24.8104 22.7926C26.0744 22.2617 27.2368 21.5159 28.2461 20.5882C29.1824 19.8143 30.5141 19.7413 31.5294 20.4082L32.8245 17.3872C33.0933 16.751 33.6844 16.309 34.3708 16.231C35.0573 16.153 35.7325 16.4511 36.1373 17.0108C36.5421 17.5705 36.6136 18.3049 36.3244 18.9322ZM21.4947 35.2996H28.0961V30.4996H21.4947V35.2996ZM22.6949 29.2996H27.6574L31.8187 25.1374C32.2609 24.6959 32.6197 24.1782 32.8779 23.6092L35.2298 18.4366C35.3302 18.2159 35.3115 17.9592 35.1802 17.7553C35.0489 17.5514 34.823 17.4281 34.5805 17.428C34.2952 17.4279 34.0374 17.5978 33.9251 17.86L32.5826 20.9908C32.2262 21.826 31.7123 22.5848 31.0691 23.2258L28.3277 25.9672C28.0923 26.1946 27.718 26.1914 27.4865 25.9599C27.255 25.7285 27.2517 25.3543 27.4792 25.1188L30.2205 22.3774C30.4979 22.1009 30.747 21.7974 30.9641 21.4714C30.3858 21.0277 29.5773 21.0434 29.0167 21.5092C27.8947 22.5387 26.5979 23.3596 25.1873 23.9332C24.6137 24.1429 24.1134 24.5145 23.747 25.003C23.0476 25.9141 22.6768 27.0347 22.6949 28.183V29.2996ZM23.8948 32.2997H23.2948C22.9635 32.2997 22.6948 32.5683 22.6948 32.8997C22.6948 33.2311 22.9635 33.4997 23.2948 33.4997H23.8948C24.2262 33.4997 24.4948 33.2311 24.4948 32.8997C24.4948 32.5683 24.2262 32.2997 23.8948 32.2997ZM14.4121 13.3398C14.6109 13.0747 14.9871 13.021 15.2522 13.2198L17.145 14.6394L21.5944 7.96679C21.7134 7.78844 21.9185 7.68711 22.1325 7.70097C22.3465 7.71482 22.5368 7.84176 22.6318 8.03397C22.7268 8.22617 22.712 8.45444 22.593 8.63278L17.792 15.8328C17.7005 15.97 17.5566 16.0635 17.3941 16.0914C17.3606 16.0969 17.3266 16.0997 17.2927 16.0998C17.1628 16.0998 17.0365 16.0577 16.9326 15.9798L14.5321 14.1798C14.2669 13.981 14.2132 13.6049 14.4121 13.3398Z" fill="#1ECE7A"/>
</svg>
