<svg width="35" height="33" viewBox="0 0 35 33" fill="none" xmlns="http://www.w3.org/2000/svg">
<path fill-rule="evenodd" clip-rule="evenodd" d="M16.8359 1.16667C16.8359 0.798533 17.1333 0.5 17.5 0.5C17.8667 0.5 18.1641 0.798533 18.1641 1.16667V6.5C18.1641 6.86813 17.8667 7.16667 17.5 7.16667C17.1333 7.16667 16.8359 6.86813 16.8359 6.5V1.16667ZM10.4567 9.15259L6.70007 5.38126C6.44069 5.12099 6.02028 5.12093 5.76089 5.38126C5.50158 5.64159 5.50158 6.06373 5.76089 6.32413L9.51749 10.0955C9.77694 10.3558 10.1973 10.3558 10.4567 10.0955C10.716 9.83513 10.716 9.41299 10.4567 9.15259ZM28.3002 5.3813C28.5597 5.12103 28.98 5.12103 29.2394 5.3813C29.4988 5.64163 29.4988 6.06376 29.2394 6.32416L25.4828 10.0955C25.2233 10.3558 24.8031 10.3558 24.5436 10.0955C24.2843 9.8351 24.2843 9.41296 24.5436 9.15263L28.3002 5.3813ZM27.3317 27.1667H28.125C29.2234 27.1667 30.1171 28.0639 30.1171 29.1667V31.8334C30.1171 32.2015 29.8198 32.5 29.4531 32.5H5.54687C5.18011 32.5 4.88281 32.2015 4.88281 31.8334V29.1667C4.88281 28.0639 5.77651 27.1667 6.875 27.1667H7.66828L9.8304 15.0009C10.2324 12.7784 12.1557 11.1667 14.4041 11.1667H20.5958C22.8438 11.1667 24.7674 12.7783 25.1698 14.9986L27.3317 27.1667ZM14.4041 12.5C12.7982 12.5 11.4243 13.6512 11.1375 15.2371L9.01739 27.1667H25.9826L23.8627 15.235C23.5757 13.6512 22.2016 12.5 20.5958 12.5H14.4041ZM6.21094 31.1667H28.789V29.1667C28.789 28.7991 28.4911 28.5 28.125 28.5H6.875C6.50883 28.5 6.21094 28.7991 6.21094 29.1667V31.1667ZM21.4844 17.1667C21.4844 16.7987 21.7819 16.5 22.1484 16.5C22.515 16.5 22.8125 16.7987 22.8125 17.1667C22.8125 17.5347 22.515 17.8333 22.1484 17.8333C21.7819 17.8333 21.4844 17.5347 21.4844 17.1667ZM24.2893 25.0475L23.3151 19.6642C23.2496 19.3018 22.9033 19.0613 22.5431 19.1274C22.1822 19.1932 21.9428 19.5402 22.0084 19.9025L22.9825 25.2858C23.0486 25.6509 23.3971 25.8882 23.7546 25.8226C24.1155 25.7568 24.3549 25.4097 24.2893 25.0475ZM28.125 16.5H33.8359C34.2026 16.5 34.5 16.7985 34.5 17.1667C34.5 17.5348 34.2026 17.8333 33.8359 17.8333H28.125C27.7583 17.8333 27.4609 17.5348 27.4609 17.1667C27.4609 16.7985 27.7583 16.5 28.125 16.5ZM6.87499 16.5H1.16406C0.7973 16.5 0.5 16.7985 0.5 17.1667C0.5 17.5348 0.7973 17.8333 1.16406 17.8333H6.87499C7.24175 17.8333 7.53905 17.5348 7.53905 17.1667C7.53905 16.7985 7.24175 16.5 6.87499 16.5Z" fill="#D62642"/>
</svg>
