<svg width="37" height="36" viewBox="0 0 37 36" fill="none" xmlns="http://www.w3.org/2000/svg">
<path fill-rule="evenodd" clip-rule="evenodd" d="M27.7351 3.99017L18.7332 0.0505791C18.5801 -0.0162087 18.4062 -0.0162087 18.2531 0.0505791L9.25119 3.99017C9.03259 4.08556 8.89124 4.30131 8.89111 4.53977V13.9598C8.89437 16.0768 9.91187 18.064 11.6277 19.3046L17.8492 23.7908C18.2335 24.0688 18.7528 24.0688 19.1371 23.7908L25.3586 19.3052C27.0744 18.0646 28.0919 16.0774 28.0952 13.9604V4.53977C28.0951 4.30131 27.9537 4.08556 27.7351 3.99017ZM26.8949 13.9604C26.8922 15.6919 26.0599 17.3173 24.6565 18.332L18.4932 22.7762L12.3298 18.332C10.9264 17.3173 10.0941 15.6919 10.0914 13.9604V4.93217L18.4932 1.25538L26.8949 4.93217V13.9604ZM18.2535 2.67082L11.6521 5.56042C11.4335 5.6558 11.2921 5.87155 11.292 6.11001V13.961C11.2938 15.3072 11.941 16.5709 13.0324 17.3594L18.1424 21.0446C18.3521 21.1958 18.635 21.1958 18.8446 21.0446L23.9547 17.3594C25.046 16.5709 25.6932 15.3072 25.6951 13.961V6.11001C25.6949 5.87155 25.5536 5.6558 25.335 5.56042L18.7336 2.67082C18.5805 2.60403 18.4065 2.60403 18.2535 2.67082ZM24.4948 6.50181V13.961C24.493 14.9216 24.0311 15.8233 23.2525 16.3862L18.4935 19.8182L13.7345 16.3862C12.9559 15.8233 12.4941 14.9216 12.4922 13.961V6.50181L18.4935 3.87562L24.4948 6.50181ZM4.16352 16.8878L5.46159 19.9202C6.47342 19.25 7.8044 19.3191 8.74129 20.0906C9.75063 21.0182 10.9131 21.764 12.177 22.295C12.9718 22.5757 13.6671 23.0827 14.1772 23.7536C15.0474 24.8773 15.5111 26.2626 15.4927 27.6836V28.8002C16.1556 28.8002 16.693 29.3374 16.693 30.0002V34.8002C16.693 35.4629 16.1556 36.0002 15.4927 36.0002H8.89132C8.22844 36.0002 7.69107 35.4629 7.69107 34.8002V30.0002C7.69172 29.6967 7.80804 29.4049 8.01634 29.1842L4.31775 25.4858C3.77357 24.9427 3.33217 24.3056 3.01487 23.6054L0.662974 18.4328C0.386927 17.8076 0.46545 17.0827 0.868963 16.5311C1.27248 15.9795 1.93968 15.685 2.61923 15.7586C3.29879 15.8322 3.88747 16.2626 4.16352 16.8878ZM8.89132 34.8002H15.4927V30.0002H8.89132V34.8002ZM14.2925 27.6836C14.3107 26.5351 13.94 25.4142 13.2404 24.503C12.8732 24.0142 12.3718 23.6427 11.7971 23.4338C10.3868 22.86 9.09017 22.0391 7.96833 21.0098C7.4071 20.5474 6.60084 20.534 6.02451 20.9774C6.24096 21.301 6.48881 21.6024 6.76447 21.8774L9.50585 24.6188C9.66186 24.7694 9.72443 24.9925 9.66951 25.2023C9.61458 25.4121 9.45072 25.5759 9.2409 25.6308C9.03108 25.6857 8.80795 25.6232 8.65727 25.4672L5.91589 22.7258C5.2727 22.0847 4.75886 21.3259 4.40237 20.4908L3.05988 17.3606C2.94797 17.098 2.68999 16.9278 2.40454 16.928C2.16198 16.9281 1.93608 17.0514 1.8048 17.2553C1.67352 17.4592 1.65484 17.7158 1.75521 17.9366L4.10711 23.1092C4.36528 23.6782 4.72412 24.1959 5.16633 24.6374L9.33002 28.8002H14.2925V27.6836ZM13.6927 31.8002H13.0927C12.7613 31.8002 12.4927 32.0688 12.4927 32.4002C12.4927 32.7315 12.7613 33.0002 13.0927 33.0002H13.6927C14.024 33.0002 14.2927 32.7315 14.2927 32.4002C14.2927 32.0688 14.024 31.8002 13.6927 31.8002ZM36.3244 18.4327L33.9725 23.6053C33.6552 24.3056 33.2138 24.9426 32.6697 25.4857L28.9711 29.1841C29.1794 29.4048 29.2957 29.6966 29.2963 30.0001V34.8001C29.2963 35.4628 28.759 36.0001 28.0961 36.0001H21.4947C20.8318 36.0001 20.2944 35.4628 20.2944 34.8001V30.0001C20.2944 29.3374 20.8318 28.8001 21.4947 28.8001V27.6835C21.4759 26.2619 21.9396 24.8759 22.8102 23.7517C23.3203 23.0809 24.0156 22.5739 24.8104 22.2931C26.0744 21.7622 27.2368 21.0163 28.2461 20.0887C29.1824 19.3148 30.5141 19.2418 31.5294 19.9087L32.8245 16.8877C33.0933 16.2515 33.6844 15.8095 34.3708 15.7315C35.0573 15.6535 35.7325 15.9516 36.1373 16.5113C36.5421 17.071 36.6136 17.8054 36.3244 18.4327ZM21.4947 34.8001H28.0961V30.0001H21.4947V34.8001ZM22.6949 28.8001H27.6574L31.8187 24.6379C32.2609 24.1964 32.6197 23.6787 32.8779 23.1097L35.2298 17.9371C35.3302 17.7164 35.3115 17.4597 35.1802 17.2558C35.0489 17.0519 34.823 16.9286 34.5805 16.9285C34.2952 16.9284 34.0374 17.0983 33.9251 17.3605L32.5826 20.4913C32.2262 21.3265 31.7123 22.0852 31.0691 22.7263L28.3277 25.4677C28.0923 25.6951 27.718 25.6918 27.4865 25.4604C27.255 25.229 27.2517 24.8547 27.4792 24.6193L30.2205 21.8779C30.4979 21.6014 30.747 21.2979 30.9641 20.9719C30.3858 20.5282 29.5773 20.5439 29.0167 21.0097C27.8947 22.0392 26.5979 22.8601 25.1873 23.4337C24.6137 23.6434 24.1134 24.015 23.747 24.5035C23.0476 25.4145 22.6768 26.5352 22.6949 27.6835V28.8001ZM23.8948 31.8002H23.2948C22.9635 31.8002 22.6948 32.0688 22.6948 32.4002C22.6948 32.7315 22.9635 33.0002 23.2948 33.0002H23.8948C24.2262 33.0002 24.4948 32.7315 24.4948 32.4002C24.4948 32.0688 24.2262 31.8002 23.8948 31.8002ZM14.4121 12.8403C14.6109 12.5752 14.9871 12.5214 15.2522 12.7203L17.145 14.1399L21.5944 7.46727C21.7134 7.28893 21.9185 7.1876 22.1325 7.20145C22.3465 7.21531 22.5368 7.34225 22.6318 7.53445C22.7268 7.72666 22.712 7.95493 22.593 8.13327L17.792 15.3333C17.7005 15.4705 17.5566 15.564 17.3941 15.5919C17.3606 15.5973 17.3266 15.6002 17.2927 15.6003C17.1628 15.6003 17.0365 15.5582 16.9326 15.4803L14.5321 13.6803C14.2669 13.4814 14.2132 13.1054 14.4121 12.8403Z" fill="#D62642"/>
</svg>
